<?xml version="1.0" encoding="utf-8"?>
<!-- Generator: Adobe Illustrator 26.4.1, SVG Export Plug-In . SVG Version: 6.00 Build 0)  -->
<svg version="1.1" id="Layer_1" xmlns="http://www.w3.org/2000/svg" xmlns:xlink="http://www.w3.org/1999/xlink" x="0px" y="0px"
	 viewBox="0 0 1920 1080" style="enable-background:new 0 0 1920 1080;" xml:space="preserve">
<style type="text/css">
	.st0{fill:url(#SVGID_1_);}
	.st1{fill:url(#SVGID_00000174559849338125737920000006348080202557334179_);}
	.st2{fill:url(#SVGID_00000009566771643385341680000009172308522159108003_);}
	.st3{fill:#4F4F4F;}
	.st4{fill:url(#SVGID_00000037662390588866574790000015784729974777770636_);}
	.st5{fill:url(#SVGID_00000153683136855742106250000012218820065778201759_);}
	.st6{fill:url(#SVGID_00000000217597589801571270000005661192957632822400_);}
	.st7{fill:url(#SVGID_00000096751747555897283650000012804079590205323699_);}
	.st8{fill:url(#SVGID_00000000221550448506662230000009053457793631808686_);}
	.st9{fill:url(#SVGID_00000029742479850121692790000016670729050893025211_);}
	.st10{fill:#303030;}
	.st11{opacity:9.000000e-02;}
	.st12{fill:#FFFFFF;}
	.st13{fill:url(#SVGID_00000045597689796637673250000006797184775339694007_);}
	.st14{fill:url(#SVGID_00000052097513184325250780000015670429108489822613_);}
	.st15{fill:url(#SVGID_00000014594897064566856240000001620163435933377462_);}
	.st16{fill:url(#SVGID_00000091011621437909409540000012454357693731337089_);}
	.st17{fill:url(#SVGID_00000033370097523902195890000002071157495926154928_);}
	.st18{fill:url(#SVGID_00000134963811040399674220000013191374523047274632_);}
	.st19{fill:url(#SVGID_00000034052783184782146870000015580398666683322807_);}
</style>
<g id="Layer_1-2">
	<g>
		
			<linearGradient id="SVGID_1_" gradientUnits="userSpaceOnUse" x1="-1381.1282" y1="1049.6804" x2="3079.3223" y2="1049.6804" gradientTransform="matrix(1 0 0 1 0 2)">
			<stop  offset="0" style="stop-color:#000000"/>
			<stop  offset="0.28" style="stop-color:#090909"/>
			<stop  offset="0.49" style="stop-color:#141414"/>
			<stop  offset="0.77" style="stop-color:#050505"/>
			<stop  offset="1" style="stop-color:#000000"/>
		</linearGradient>
		<path class="st0" d="M3079.3,373.2c0,864.8-623.6,1913.9-2230.2,1913.9S-1381.1,1237.9-1381.1,373.2S-382.8-91.1,849.1-91.1
			S3079.3-491.6,3079.3,373.2L3079.3,373.2z"/>
		
			<linearGradient id="SVGID_00000085239292387192402840000003305619496319354291_" gradientUnits="userSpaceOnUse" x1="-1378.0936" y1="955.8384" x2="3076.2878" y2="955.8384" gradientTransform="matrix(1 0 0 1 0 2)">
			<stop  offset="0" style="stop-color:#1A1A1A"/>
			<stop  offset="0.47" style="stop-color:#989898"/>
			<stop  offset="0.57" style="stop-color:#7A7A7A"/>
			<stop  offset="0.77" style="stop-color:#464646"/>
			<stop  offset="0.92" style="stop-color:#262626"/>
			<stop  offset="1" style="stop-color:#1A1A1A"/>
		</linearGradient>
		<path style="fill:url(#SVGID_00000085239292387192402840000003305619496319354291_);" d="M849.1,2098.9
			c1540.7,0,2177.1-964.9,2227.2-1806.2C3014.1-465.8,2040.8-90.3,849.1-90.3s-2165.7-375.5-2227.2,384.6
			C-1331.1,1135.5-729.5,2098.9,849.1,2098.9L849.1,2098.9z"/>
		
			<linearGradient id="SVGID_00000183942063793363116390000012551245477424316038_" gradientUnits="userSpaceOnUse" x1="-1275.6853" y1="899.2292" x2="2973.8794" y2="899.2292" gradientTransform="matrix(1 0 0 1 0 2)">
			<stop  offset="0.1" style="stop-color:#000000"/>
			<stop  offset="0.12" style="stop-color:#020202"/>
			<stop  offset="0.51" style="stop-color:#333333"/>
			<stop  offset="0.85" style="stop-color:#0A0A0A"/>
			<stop  offset="0.93" style="stop-color:#000000"/>
		</linearGradient>
		<path style="fill:url(#SVGID_00000183942063793363116390000012551245477424316038_);" d="M2973.9,319.3
			c0,741.9-594,1641.6-2124.8,1641.6s-2124.8-899.7-2124.8-1641.6S-324.4-78.9,849.1-78.9S2973.9-422.6,2973.9,319.3z"/>
		<path d="M849.1,772.2C95.8,772.2-514.8,537-646.1,226.8l20.5,440c129.7,311,720.7,546.9,1474.7,546.9S2190.3,980,2322.3,670.5
			l22-443C2212.3,537.8,1601.6,772.2,849.1,772.2L849.1,772.2z"/>
		<path class="st3" d="M849.1-13.7C92-13.7-536.8-168.5-659-372.5l29.6,937.6c0,229.8,661.5,416.5,1478.5,416.5
			c816.2,0,1478.5-186.6,1478.5-416.5l29.6-937.6C2235-168.5,1606.2-13.7,849.1-13.7L849.1-13.7z"/>
		
			<linearGradient id="SVGID_00000051381451170776780280000017483984209035851909_" gradientUnits="userSpaceOnUse" x1="-760.6098" y1="-606.6431" x2="2458.8044" y2="-606.6431" gradientTransform="matrix(1 0 0 1 0 2)">
			<stop  offset="0" style="stop-color:#000000"/>
			<stop  offset="7.000000e-02" style="stop-color:#0E0E0E"/>
			<stop  offset="0.25" style="stop-color:#303030"/>
			<stop  offset="0.39" style="stop-color:#454545"/>
			<stop  offset="0.49" style="stop-color:#4D4D4D"/>
			<stop  offset="0.78" style="stop-color:#1E1E1E"/>
			<stop  offset="1" style="stop-color:#000000"/>
		</linearGradient>
		<path style="fill:url(#SVGID_00000051381451170776780280000017483984209035851909_);" d="M-760.6-2212.1l131.2,2798.4
			c0,229.8,661.5,416.5,1478.5,416.5c816.2,0,1478.5-186.6,1478.5-416.5l131.2-2798.4H-760.6L-760.6-2212.1z"/>
		
			<linearGradient id="SVGID_00000057130978591945021070000018406278825711406735_" gradientUnits="userSpaceOnUse" x1="-649.0984" y1="653.7375" x2="2347.2927" y2="653.7375" gradientTransform="matrix(1 0 0 1 0 2)">
			<stop  offset="0" style="stop-color:#2B2B2B"/>
			<stop  offset="0.5" style="stop-color:#CBCBCB"/>
			<stop  offset="1" style="stop-color:#333333"/>
		</linearGradient>
		<path style="fill:url(#SVGID_00000057130978591945021070000018406278825711406735_);" d="M849.1,707.7
			c-753.3,0-1367-235.2-1498.2-545.4l21.2,440c129.7,311,722.2,546.9,1477,546.9s1343.4-234.4,1476.2-544.7l22-441.5
			C2215.3,472.5,1601.6,707.7,849.1,707.7L849.1,707.7z"/>
		
			<linearGradient id="SVGID_00000126296796102379277840000000426573846340403900_" gradientUnits="userSpaceOnUse" x1="758.8184" y1="-2984.1946" x2="933.9891" y2="-1488.4293" gradientTransform="matrix(1 0 0 1 0 2)">
			<stop  offset="0" style="stop-color:#000000"/>
			<stop  offset="7.000000e-02" style="stop-color:#0E0E0E"/>
			<stop  offset="0.25" style="stop-color:#303030"/>
			<stop  offset="0.39" style="stop-color:#454545"/>
			<stop  offset="0.49" style="stop-color:#4D4D4D"/>
			<stop  offset="0.65" style="stop-color:#303030"/>
			<stop  offset="0.88" style="stop-color:#0D0D0D"/>
			<stop  offset="1" style="stop-color:#000000"/>
		</linearGradient>
		<path style="fill:url(#SVGID_00000126296796102379277840000000426573846340403900_);" d="M849.1-1650
			c789.7,0,1448.9-240.5,1609.7-561.3c-58.4-242-757.1-537.8-1609.7-537.8s-1550.5,295.8-1609.7,537.8
			C-599.8-1890.4,59.4-1650,849.1-1650L849.1-1650z"/>
		
			<linearGradient id="SVGID_00000049205769287702188690000015293552108983982495_" gradientUnits="userSpaceOnUse" x1="-694.6753" y1="-1862.8517" x2="2392.8694" y2="-1862.8517" gradientTransform="matrix(1 0 0 1 0 2)">
			<stop  offset="0" style="stop-color:#2B2B2B"/>
			<stop  offset="0.5" style="stop-color:#CBCBCB"/>
			<stop  offset="1" style="stop-color:#333333"/>
		</linearGradient>
		<path style="fill:url(#SVGID_00000049205769287702188690000015293552108983982495_);" d="M-672.6-2090.7
			C-531.5-1871.5,96.6-1631,849.1-1631s1380.6-239.7,1521.7-459.7C2124.3-1832,1535.6-1650,849.1-1650S-426.1-1832-672.6-2090.7
			L-672.6-2090.7z"/>
		
			<linearGradient id="SVGID_00000125564072489380490440000012126480697836249730_" gradientUnits="userSpaceOnUse" x1="-647.5812" y1="681.8047" x2="2345.7749" y2="681.8047" gradientTransform="matrix(1 0 0 1 0 2)">
			<stop  offset="0" style="stop-color:#1A1A1A"/>
			<stop  offset="0.5" style="stop-color:#666666"/>
			<stop  offset="1" style="stop-color:#1A1A1A"/>
		</linearGradient>
		<path style="fill:url(#SVGID_00000125564072489380490440000012126480697836249730_);" d="M849.1,735.8
			c-753.3,0-1365.4-235.2-1496.7-545.4l19.7,440c129.7,311,722.2,546.9,1477,546.9s1343.4-234.4,1476.2-544.7l20.5-441.5
			C2213.8,500.6,1601.6,735.8,849.1,735.8L849.1,735.8z"/>
	</g>
</g>
<g id="Layer_1-2_00000070840854031970937090000002237645133804586138_">
	<g>
		
			<linearGradient id="SVGID_00000015322724899031481430000001213827758196555709_" gradientUnits="userSpaceOnUse" x1="-3008.2424" y1="888.4369" x2="-104.3427" y2="888.4369" gradientTransform="matrix(0.9519 -0.1302 0.1176 0.8595 7.0094 152.0313)">
			<stop  offset="0" style="stop-color:#000000"/>
			<stop  offset="0.28" style="stop-color:#090909"/>
			<stop  offset="0.49" style="stop-color:#141414"/>
			<stop  offset="0.77" style="stop-color:#050505"/>
			<stop  offset="1" style="stop-color:#000000"/>
		</linearGradient>
		<path style="fill:url(#SVGID_00000015322724899031481430000001213827758196555709_);" d="M-24.8,659.2
			c47,344.4-282.2,815.5-1278.2,951.3s-1439-229.1-1486.1-573.5c-47-344.4,593.2-269.3,1357.1-374C-668.8,559-71.8,314.8-24.8,659.2
			L-24.8,659.2z"/>
		<path class="st10" d="M-1312.9,1536.1c955.1-130.5,1297.2-568.9,1282-908.8c-79.7-296.6-663-65.2-1401.1,36.4
			s-1363.2,34.1-1359.4,342.1C-2716.2,1336.6-2290.7,1669.6-1312.9,1536.1L-1312.9,1536.1z"/>
		<g class="st11">
			<path class="st12" d="M-2789.8,1010.4c0,1.5,0.8,2.3,0.8,3.8c0.8,2.3,1.5,4.6,2.3,7.6c0.8,2.3,1.5,4.6,1.5,6.1
				c1.5,3.8,1.5,6.1,1.5,6.1l5.3-1.5c0,0-0.8-2.3-1.5-6.1c-0.8-1.5-1.5-3.8-1.5-6.1c-0.8-2.3-1.5-4.6-2.3-6.8c0-1.5-0.8-2.3-0.8-3.8
				c0-1.5-0.8-2.3-0.8-3.8c-0.8-2.3-0.8-4.6-1.5-6.1c-0.8-3.8-1.5-6.1-1.5-6.1l-3,0.8c0,3.8,0,7.6,0,11.4c0,0.8,0,1.5,0.8,2.3
				C-2790.6,1008.1-2790.6,1008.9-2789.8,1010.4L-2789.8,1010.4z"/>
			<path class="st12" d="M-2759.5,1081.7c-0.8-1.5-1.5-3.8-2.3-6.1c-0.8-0.8-0.8-2.3-1.5-3c-0.8-1.5-0.8-2.3-1.5-3.8
				c-1.5-4.6-3.8-9.1-5.3-12.9c-0.8-1.5-1.5-3-1.5-4.6c0-0.8-0.8-1.5-0.8-1.5l-5.3,1.5c0,0,0,0.8,0.8,1.5c0.8,0.8,0.8,2.3,1.5,4.6
				c1.5,3.8,3,8.3,5.3,12.9c0.8,1.5,0.8,2.3,1.5,3.8c0.8,1.5,0.8,2.3,1.5,3.8c0.8,2.3,1.5,4.6,2.3,6.1c0.8,1.5,1.5,3,1.5,4.6
				c0.8,0.8,0.8,1.5,0.8,1.5l5.3-2.3c0,0,0-0.8-0.8-1.5C-2758,1084.7-2758.7,1084-2759.5,1081.7L-2759.5,1081.7z"/>
			<path class="st12" d="M-2734.4,1132.5c0-0.8-0.8-0.8-0.8-1.5c0-0.8-0.8-0.8-0.8-1.5c-0.8-2.3-2.3-4.6-3.8-6.8
				c-1.5-2.3-2.3-4.6-3.8-6.8c-0.8-2.3-2.3-3.8-3-6.1c-1.5-3.8-3-6.1-3-6.1l-5.3,2.3c0,0,0.8,2.3,3,6.1c0.8,1.5,1.5,3.8,3,6.1
				c0.8,2.3,2.3,4.6,3.8,6.8c1.5,2.3,2.3,4.6,3.8,6.8c0,0.8,0.8,0.8,0.8,1.5c0,0.8,0.8,0.8,0.8,1.5c0.8,0.8,0.8,1.5,1.5,3
				c2.3,3,3,5.3,3,5.3l5.3-2.3c0,0-1.5-2.3-3-5.3C-2733.7,1134-2734.4,1133.3-2734.4,1132.5L-2734.4,1132.5z"/>
			<path class="st12" d="M-2698.8,1189.4c-0.8-0.8-1.5-2.3-2.3-3.8c-0.8-1.5-2.3-3-3.8-5.3c-0.8-0.8-1.5-2.3-2.3-3
				c0-0.8-0.8-0.8-0.8-1.5c0-0.8-0.8-0.8-0.8-1.5c-3-4.6-5.3-8.3-7.6-11.4c-0.8-1.5-1.5-3-2.3-3.8s-0.8-1.5-0.8-1.5l-4.6,3
				c0,0,0,0.8,0.8,1.5c0.8,0.8,1.5,2.3,2.3,3.8c2.3,3,5.3,7.6,7.6,12.1c0,0.8,0.8,0.8,0.8,1.5c0,0.8,0.8,0.8,0.8,1.5
				c0.8,0.8,1.5,2.3,2.3,3c1.5,2.3,3,3.8,3.8,5.3c0.8,1.5,2.3,3,3,3.8c0,0.8,0.8,0.8,0.8,0.8l0,0l4.6-3l0,0
				C-2697.3,1190.9-2698,1190.2-2698.8,1189.4L-2698.8,1189.4z"/>
			<path class="st12" d="M-2673,1222c-0.8-0.8-1.5-2.3-2.3-3c-0.8-0.8-1.5-2.3-2.3-3c-1.5-1.5-3-3.8-3.8-5.3c-2.3-3-3.8-5.3-3.8-5.3
				l-4.6,3c0,0,1.5,2.3,3.8,5.3c1.5,1.5,2.3,3,3.8,5.3c0.8,0.8,1.5,2.3,2.3,3c0.8,0.8,1.5,2.3,2.3,3c3,3.8,6.8,7.6,9.1,10.6
				s4.6,4.6,4.6,4.6l4.6-3c0,0-1.5-2.3-4.6-4.6C-2666.9,1230.4-2670,1226.6-2673,1222L-2673,1222z"/>
			<path class="st12" d="M-2624.4,1275.1c-0.8-0.8-1.5-1.5-2.3-2.3c-1.5-1.5-3.8-3.8-5.3-5.3c-1.5-1.5-3.8-3.8-5.3-5.3
				c-1.5-1.5-3-3-4.6-4.6c-3-3-4.6-4.6-4.6-4.6l-4.6,3.8c0,0,1.5,1.5,4.6,4.6c1.5,1.5,3,3,4.6,4.6c1.5,1.5,3.8,3.8,5.3,5.3
				c1.5,1.5,3.8,3.8,5.3,5.3c0.8,0.8,1.5,1.5,2.3,2.3c0.8,0.8,1.5,1.5,2.3,2.3c3,3,4.6,4.6,4.6,4.6l3.8-3.8c0,0-1.5-1.5-4.6-4.6
				C-2622.9,1276.6-2623.7,1275.9-2624.4,1275.1L-2624.4,1275.1z"/>
			<path class="st12" d="M-2588,1307.7c-3.8-3-8.3-6.8-10.6-9.1c-3-2.3-4.6-4.6-4.6-4.6l-3.8,3.8c0,0,2.3,1.5,4.6,4.6
				c3,2.3,6.8,6.1,10.6,9.1c3.8,3,8.3,6.8,11.4,9.1c3,2.3,5.3,3.8,5.3,3.8l3.8-3.8c0,0-2.3-1.5-5.3-3.8
				C-2579.7,1314.6-2583.5,1311.5-2588,1307.7L-2588,1307.7z"/>
			<path class="st12" d="M-2533.4,1350.2c-2.3-1.5-3.8-3-6.1-4.6c-2.3-1.5-4.6-3-6.1-4.6c-0.8-0.8-2.3-1.5-3-2.3
				c-0.8-0.8-1.5-1.5-2.3-2.3l-5.3-3.8l-3.8,3.8c0,0,2.3,1.5,5.3,3.8c0.8,0.8,1.5,1.5,2.3,2.3c0.8,0.8,1.5,1.5,3,2.3
				c2.3,1.5,3.8,3,6.1,4.6c2.3,1.5,4.6,3,6.1,4.6c2.3,1.5,3.8,3,5.3,3.8c3,2.3,5.3,3.8,5.3,3.8l3-4.6c0,0-2.3-1.5-5.3-3.8
				C-2528.9,1352.5-2531.1,1351-2533.4,1350.2L-2533.4,1350.2z"/>
			<path class="st12" d="M-2475.8,1386.6c-3-2.3-7.6-4.6-12.1-7.6c-0.8-0.8-2.3-1.5-3-2.3c-0.8,0-0.8-0.8-1.5-0.8
				c-0.8,0-0.8-0.8-1.5-0.8c-2.3-1.5-3.8-2.3-6.1-3.8c-3-2.3-5.3-3.8-5.3-3.8l-3,4.6c0,0,2.3,1.5,5.3,3.8c1.5,0.8,3.8,2.3,6.1,3.8
				c0.8,0,0.8,0.8,1.5,0.8c0.8,0,0.8,0.8,1.5,0.8c0.8,0.8,2.3,1.5,3,2.3c4.6,3,9.1,5.3,12.1,7.6c1.5,0.8,3,1.5,3.8,2.3
				c0.8,0.8,1.5,0.8,1.5,0.8l3-4.6c0,0-0.8,0-1.5-0.8S-2473.5,1387.4-2475.8,1386.6L-2475.8,1386.6z"/>
			<path class="st12" d="M-2453,1399.5l-3,4.6c0,0,9.1,5.3,19,9.9c9.9,4.6,19,9.9,19,9.9l3-4.6c0,0-9.1-4.6-19-9.1
				C-2443.1,1404.1-2453,1399.5-2453,1399.5z"/>
			<path class="st12" d="M-2367.3,1440.5c-0.8-0.8-2.3-0.8-3-1.5c-2.3-0.8-4.6-2.3-6.8-3c-4.6-2.3-9.9-4.6-13.7-6.1
				c-3.8-1.5-6.1-3-6.1-3l-2.3,4.6c0,0,2.3,0.8,6.1,3c3.8,1.5,8.3,3.8,13.7,6.1c2.3,0.8,4.6,2.3,6.8,3c1.5,0.8,2.3,0.8,3,1.5
				c0.8,0.8,2.3,0.8,3,1.5c3.8,1.5,6.1,2.3,6.1,2.3l2.3-4.6c0,0-2.3-0.8-6.1-2.3C-2365,1441.2-2366.5,1441.2-2367.3,1440.5
				L-2367.3,1440.5z"/>
			<path class="st12" d="M-2340,1451.9l-2.3,4.6c0,0,9.9,3.8,19.7,7.6c9.9,3.8,20.5,7.6,20.5,7.6l2.3-4.6c0,0-9.9-3.8-19.7-7.6
				C-2330.1,1455.7-2340,1451.9-2340,1451.9L-2340,1451.9z"/>
			<path class="st12" d="M-2246.7,1483.7c-3.8-1.5-9.1-3-14.4-4.6c-5.3-1.5-9.9-3-13.7-4.6c-3.8-1.5-6.1-2.3-6.1-2.3l-2.3,5.3
				c0,0,2.3,0.8,6.1,2.3c3.8,1.5,9.1,3,14.4,4.6c5.3,1.5,10.6,3,14.4,4.6c2.3,0.8,3.8,0.8,4.6,1.5c0.8,0,1.5,0.8,1.5,0.8l1.5-5.3
				c0,0-0.8,0-1.5-0.8C-2242.9,1485.2-2244.4,1484.5-2246.7,1483.7L-2246.7,1483.7z"/>
			<path class="st12" d="M-2192.8,1498.9c-2.3-0.8-5.3-1.5-7.6-2.3c-5.3-1.5-10.6-3-14.4-3.8c-2.3-0.8-3.8-0.8-4.6-1.5
				c-0.8,0-1.5-0.8-1.5-0.8l-1.5,5.3c0,0,0.8,0,1.5,0.8c0.8,0,3,0.8,4.6,1.5c3.8,0.8,9.1,2.3,14.4,3.8c2.3,0.8,5.3,1.5,7.6,2.3
				c2.3,0.8,4.6,1.5,6.8,1.5c3.8,0.8,6.8,1.5,6.8,1.5l1.5-5.3c0,0-2.3-0.8-6.8-1.5C-2188.3,1500.4-2190.5,1499.7-2192.8,1498.9
				L-2192.8,1498.9z"/>
			<path class="st12" d="M-2138.9,1511.8c-10.6-2.3-21.2-4.6-21.2-4.6l-1.5,5.3c0,0,10.6,2.3,21.2,4.6c5.3,1.5,10.6,2.3,14.4,3
				c3.8,0.8,6.8,1.5,6.8,1.5l1.5-5.3c0,0-2.3-0.8-6.8-1.5C-2128.3,1514.1-2133.6,1512.6-2138.9,1511.8L-2138.9,1511.8z"/>
			<path class="st12" d="M-2069.2,1524.7c-2.3-0.8-5.3-0.8-7.6-1.5c-10.6-2.3-21.2-3.8-21.2-3.8l-1.5,5.3c0,0,10.6,2.3,21.2,3.8
				c2.3,0.8,5.3,0.8,7.6,1.5c2.3,0.8,4.6,0.8,6.8,0.8c3.8,0.8,6.8,0.8,6.8,0.8l0.8-5.3c0,0-3-0.8-6.8-0.8
				C-2064.6,1525.4-2066.9,1525.4-2069.2,1524.7L-2069.2,1524.7z"/>
			<path class="st12" d="M-2007,1534.6c-2.3,0-5.3-0.8-7.6-0.8c-10.6-1.5-21.2-3-21.2-3l-0.8,5.3c0,0,10.6,1.5,21.2,3
				c3,0.8,5.3,0.8,7.6,0.8c2.3,0,4.6,0.8,6.8,0.8c3.8,0.8,6.8,0.8,6.8,0.8l0.8-5.3c0,0-3,0-6.8-0.8
				C-2001.6,1534.6-2004.7,1534.6-2007,1534.6L-2007,1534.6z"/>
			<path class="st12" d="M-1951.6,1540.6c-10.6-1.5-21.2-2.3-21.2-2.3l-0.8,5.3c0,0,10.6,1.5,21.2,2.3c5.3,0.8,10.6,0.8,15.2,1.5
				c3.8,0,6.8,0.8,6.8,0.8l0.8-5.3c0,0-3,0-6.8-0.8C-1941,1541.4-1946.3,1541.4-1951.6,1540.6L-1951.6,1540.6z"/>
			<path class="st12" d="M-1888.6,1545.9c-10.6-0.8-21.2-1.5-21.2-1.5l-0.8,5.3c0,0,10.6,0.8,22,1.5c5.3,0.8,10.6,0.8,15.2,0.8
				c3.8,0,6.8,0,6.8,0l0.8-5.3c0,0-3,0-6.8,0C-1878,1546.7-1883.3,1545.9-1888.6,1545.9L-1888.6,1545.9z"/>
			<path class="st12" d="M-1810.5,1549.7c-3.8,0-9.1,0-15.2-0.8c-5.3,0-10.6-0.8-15.2-0.8c-2.3,0-3.8,0-4.6,0c-1.5,0-1.5,0-1.5,0
				l-0.8,5.3c0,0,0.8,0,1.5,0c1.5,0,3,0,4.6,0c3.8,0,9.9,0,15.2,0.8c5.3,0,10.6,0.8,15.2,0.8c2.3,0,3.8,0,4.6,0c1.5,0,1.5,0,1.5,0
				v-5.3c0,0-0.8,0-1.5,0C-1806.7,1549.7-1808.2,1549.7-1810.5,1549.7L-1810.5,1549.7z"/>
			<path class="st12" d="M-1769.5,1551.2c-2.3,0-4.6,0-6.8,0c-3.8,0-6.8,0-6.8,0v5.3c0,0,3,0,6.8,0c2.3,0,4.6,0,6.8,0
				c2.3,0,5.3,0,8.3,0c10.6,0,22,0,22,0v-5.3c0,0-10.6,0-22,0C-1764.2,1551.2-1767.2,1551.2-1769.5,1551.2L-1769.5,1551.2z"/>
			<path class="st12" d="M-1690.6,1551.2c-1.5,0-2.3,0-3.8,0c-1.5,0-3,0-3.8,0h-22v5.3c0,0,10.6,0,22,0c1.5,0,3,0,3.8,0
				c1.5,0,2.3,0,3.8,0c2.3,0,4.6,0,6.8,0c3.8,0,6.8,0,6.8,0v-5.3c0,0-3,0-6.8,0C-1685.3,1550.5-1687.6,1550.5-1690.6,1551.2
				L-1690.6,1551.2z"/>
			<path class="st12" d="M-1634.5,1549.7c-5.3,0-10.6,0.8-15.2,0.8c-2.3,0-3.8,0-4.6,0c-1.5,0-1.5,0-1.5,0v5.3c0,0,0.8,0,1.5,0
				c1.5,0,3,0,4.6,0c3.8,0,9.9,0,15.2-0.8c5.3,0,10.6-0.8,15.2-0.8c3.8,0,6.8,0,6.8,0v-5.3c0,0-3,0-6.8,0
				C-1623.9,1549-1629.2,1549-1634.5,1549.7L-1634.5,1549.7z"/>
			<path class="st12" d="M-1575.3,1546.7c-1.5,0-2.3,0-3.8,0c-2.3,0-4.6,0-6.8,0c-3.8,0-6.8,0-6.8,0v5.3c0,0,3,0,6.8,0
				c2.3,0,4.6,0,6.8,0c1.5,0,2.3,0,3.8,0c1.5,0,3,0,3.8,0c10.6-0.8,22-1.5,22-1.5v-5.3c0,0-10.6,0.8-22,1.5
				C-1572.3,1546.7-1573.8,1546.7-1575.3,1546.7L-1575.3,1546.7z"/>
			<path class="st12" d="M-1492.6,1540.6c-3.8,0-9.1,0.8-15.2,1.5c-10.6,0.8-22,1.5-22,1.5v5.3c0,0,10.6-0.8,22-1.5
				c5.3-0.8,10.6-0.8,15.2-1.5c2.3,0,3.8,0,4.6-0.8c1.5,0,1.5,0,1.5,0l-0.8-5.3c0,0-0.8,0-1.5,0
				C-1488.8,1540.6-1491.1,1540.6-1492.6,1540.6L-1492.6,1540.6z"/>
			<path class="st12" d="M-1448.6,1536.8c-1.5,0-2.3,0-3.8,0c-2.3,0-4.6,0.8-6.8,0.8c-3.8,0-6.8,0.8-6.8,0.8l0.8,5.3
				c0,0,3,0,6.8-0.8c2.3,0,4.6-0.8,6.8-0.8c1.5,0,2.3,0,3.8,0s3,0,3.8-0.8c10.6-0.8,22-2.3,22-2.3l-0.8-5.3c0,0-10.6,0.8-21.2,2.3
				C-1445.6,1536.1-1447.1,1536.8-1448.6,1536.8L-1448.6,1536.8z"/>
			<polygon class="st12" points="-1402.4,1536.8 -1359.1,1532.3 -1359.1,1527 -1402.4,1531.5 			"/>
			<path class="st12" d="M-1303,1519.4c-2.3,0-4.6,0.8-6.8,0.8c-2.3,0-5.3,0.8-7.6,0.8c-10.6,1.5-21.2,3-21.2,3l0.8,5.3
				c0,0,10.6-1.5,21.2-3c3,0,5.3-0.8,7.6-0.8s4.6-0.8,6.8-0.8c3.8-0.8,6.8-0.8,6.8-0.8l-0.8-5.3
				C-1296.2,1518.6-1299.2,1518.6-1303,1519.4L-1303,1519.4z"/>
			<path class="st12" d="M-1255.2,1511.8c-5.3,0.8-10.6,1.5-14.4,2.3c-3.8,0.8-6.8,0.8-6.8,0.8l0.8,5.3c0,0,3-0.8,6.8-0.8
				c3.8-0.8,9.1-1.5,14.4-2.3c10.6-1.5,21.2-3,21.2-3l-0.8-5.3C-1233.2,1508.8-1243.8,1510.3-1255.2,1511.8L-1255.2,1511.8z"/>
			<path class="st12" d="M-1177.1,1498.9c-2.3,0-4.6,0.8-6.8,1.5c-2.3,0.8-5.3,0.8-7.6,1.5c-10.6,1.5-21.2,3.8-21.2,3.8l0.8,5.3
				c0,0,10.6-1.5,21.2-3.8c3-0.8,5.3-0.8,7.6-1.5c2.3-0.8,4.6-0.8,6.8-1.5c3.8-0.8,6.8-1.5,6.8-1.5l-0.8-5.3
				C-1171,1498.1-1173.3,1498.1-1177.1,1498.9L-1177.1,1498.9z"/>
			<path class="st12" d="M-1129.3,1490.6c-5.3,0.8-10.6,2.3-14.4,3c-3.8,0.8-6.8,1.5-6.8,1.5l0.8,5.3c0,0,3-0.8,6.8-1.5
				c3.8-0.8,9.1-1.5,14.4-3c10.6-2.3,21.2-4.6,21.2-4.6l-0.8-5.3C-1108,1486-1118.7,1488.3-1129.3,1490.6L-1129.3,1490.6z"/>
			<path class="st12" d="M-1052.7,1473.9c-3.8,0.8-9.1,2.3-14.4,3c-10.6,2.3-21.2,4.6-21.2,4.6l0.8,5.3c0,0,10.6-2.3,21.2-4.6
				c5.3-0.8,10.6-2.3,14.4-3c3.8-0.8,6.8-1.5,6.8-1.5l-1.5-5.3C-1045.8,1472.3-1048.9,1473.1-1052.7,1473.9z"/>
			<path class="st12" d="M-985.9,1458.7c-1.5,0-3,0.8-4.6,1.5c-3.8,0.8-9.1,2.3-14.4,3.8c-5.3,1.5-10.6,2.3-14.4,3.8
				c-3.8,0.8-6.8,1.5-6.8,1.5l1.5,5.3c0,0,2.3-0.8,6.8-1.5c3.8-0.8,9.1-2.3,14.4-3.8c5.3-1.5,10.6-2.3,14.4-3.8
				c2.3-0.8,3.8-0.8,4.6-1.5c1.5,0,1.5-0.8,1.5-0.8l-1.5-5.3C-984.4,1457.9-985.1,1457.9-985.9,1458.7L-985.9,1458.7z"/>
			<path class="st12" d="M-943.4,1447.3c-5.3,1.5-10.6,3-14.4,3.8c-3.8,0.8-6.8,1.5-6.8,1.5l1.5,5.3c0,0,2.3-0.8,6.8-1.5
				c3.8-0.8,9.1-2.3,14.4-3.8l21.2-6.1l-1.5-5.3C-922.9,1442-932.8,1445-943.4,1447.3L-943.4,1447.3z"/>
			<path class="st12" d="M-868.3,1426.1c-2.3,0.8-4.6,1.5-6.8,2.3c-2.3,0.8-5.3,1.5-7.6,2.3c-10.6,3-20.5,6.1-20.5,6.1l1.5,5.3
				c0,0,10.6-3,20.5-6.1c2.3-0.8,5.3-1.5,7.6-2.3c2.3-0.8,4.6-1.5,6.8-2.3c3.8-1.5,6.8-2.3,6.8-2.3l-1.5-5.3
				C-861.5,1423.8-864.5,1424.6-868.3,1426.1L-868.3,1426.1z"/>
			<path class="st12" d="M-807.6,1407.1c-3.8,1.5-9.1,3-14.4,4.6c-5.3,1.5-10.6,3-14.4,4.6c-2.3,0.8-3.8,1.5-4.6,1.5
				s-1.5,0.8-1.5,0.8l1.5,5.3c0,0,0.8,0,1.5-0.8c0.8,0,3-0.8,4.6-1.5c3.8-1.5,9.1-3,14.4-4.6c5.3-1.5,10.6-3,14.4-4.6
				c3.8-1.5,6.1-2.3,6.1-2.3l-1.5-5.3C-801.6,1404.8-803.8,1405.6-807.6,1407.1L-807.6,1407.1z"/>
			<path class="st12" d="M-743.2,1384.4c-0.8,0.8-3,0.8-4.6,1.5c-3.8,1.5-9.1,3-13.7,5.3c-5.3,1.5-9.9,3.8-13.7,5.3
				c-3.8,1.5-6.1,2.3-6.1,2.3l1.5,4.6c0,0,2.3-0.8,6.1-2.3s9.1-3,13.7-5.3c5.3-1.5,9.9-3.8,13.7-5.3c2.3-0.8,3.8-1.5,4.6-1.5
				c0.8-0.8,1.5-0.8,1.5-0.8l-2.3-4.6C-741.6,1383.6-742.4,1383.6-743.2,1384.4L-743.2,1384.4z"/>
			<path class="st12" d="M-702.2,1368.4c-2.3,0.8-5.3,2.3-7.6,3c-2.3,0.8-4.6,1.5-6.8,2.3c-3.8,1.5-6.1,2.3-6.1,2.3l2.3,4.6
				c0,0,2.3-0.8,6.1-2.3c2.3-0.8,3.8-1.5,6.8-2.3c2.3-0.8,4.6-2.3,7.6-3c9.9-3.8,20.5-8.3,20.5-8.3l-2.3-4.6
				C-682.5,1360.8-692.3,1364.6-702.2,1368.4L-702.2,1368.4z"/>
			<path class="st12" d="M-643.8,1344.1c-2.3,0.8-4.6,2.3-7.6,3c-2.3,0.8-4.6,2.3-6.1,3c-3.8,1.5-6.1,2.3-6.1,2.3l2.3,4.6
				c0,0,2.3-0.8,6.1-2.3c1.5-0.8,3.8-1.5,6.1-3c2.3-0.8,4.6-2.3,7.6-3c9.9-4.6,19.7-9.1,19.7-9.1l-2.3-4.6
				C-624.1,1335.8-633.9,1339.6-643.8,1344.1L-643.8,1344.1z"/>
			<path class="st12" d="M-586.9,1317.6c-2.3,1.5-4.6,2.3-6.8,3.8c-2.3,0.8-4.6,2.3-6.1,3c-3.8,1.5-6.1,3-6.1,3l2.3,4.6
				c0,0,2.3-1.5,6.1-3c1.5-0.8,3.8-1.5,6.1-3c2.3-0.8,4.6-2.3,6.8-3.8c9.9-4.6,19.7-9.1,19.7-9.1l-2.3-4.6
				C-567.2,1308.5-577,1313-586.9,1317.6L-586.9,1317.6z"/>
			<path class="st12" d="M-513.3,1280.4c-0.8,0.8-2.3,1.5-4.6,2.3c-3.8,2.3-8.3,4.6-12.9,6.8c-4.6,2.3-9.1,5.3-12.9,6.8
				c-3.8,1.5-6.1,3-6.1,3l2.3,4.6c0,0,2.3-1.5,6.1-3c3.8-1.5,8.3-4.6,12.9-6.8c4.6-2.3,9.9-5.3,12.9-6.8c1.5-0.8,3-1.5,4.6-2.3
				c0.8-0.8,1.5-0.8,1.5-0.8l-3-4.6C-511,1278.9-511.8,1279.7-513.3,1280.4L-513.3,1280.4z"/>
			<path class="st12" d="M-462.5,1250.8c-3.8,2.3-8.3,4.6-12.9,7.6c-4.6,3-9.1,5.3-12.9,7.6c-3.8,2.3-6.1,3-6.1,3l3,4.6
				c0,0,2.3-1.5,6.1-3c3.8-2.3,8.3-4.6,12.9-7.6c4.6-3,9.1-5.3,12.9-7.6c3.8-2.3,6.1-3.8,6.1-3.8l-3-4.6
				C-457.2,1247.8-459.5,1249.3-462.5,1250.8L-462.5,1250.8z"/>
			<path class="st12" d="M-409.4,1217.5c-3,2.3-7.6,5.3-12.1,8.3l-18.2,11.4l3,4.6c0,0,9.1-6.1,18.2-11.4c4.6-3,9.1-6.1,12.1-8.3
				c3-2.3,5.3-3.8,5.3-3.8l-3-4.6C-404.1,1213.7-406.4,1215.2-409.4,1217.5L-409.4,1217.5z"/>
			<path class="st12" d="M-370.7,1190.2c-0.8,0.8-2.3,1.5-3,2.3c-0.8,0.8-2.3,1.5-3,2.3c-2.3,1.5-3.8,3-5.3,3.8
				c-3,2.3-5.3,3.8-5.3,3.8l3,4.6c0,0,2.3-1.5,5.3-3.8c1.5-1.5,3.8-2.3,5.3-3.8c0.8-0.8,2.3-1.5,3-2.3c0.8-0.8,2.3-1.5,3-2.3
				c8.3-6.1,17.4-12.9,17.4-12.9l-3.8-3.8C-353.3,1177.3-361.6,1183.3-370.7,1190.2L-370.7,1190.2z"/>
			<path class="st12" d="M-310,1142.4c-1.5,1.5-3,3-5.3,4.6c-2.3,1.5-3.8,3-6.1,5.3c-3.8,3-8.3,6.8-11.4,9.1c-1.5,1.5-3,2.3-3.8,3
				c-0.8,0.8-1.5,0.8-1.5,0.8l3.8,3.8c0,0,0.8-0.8,1.5-0.8c0.8-0.8,2.3-1.5,3.8-3c3-2.3,7.6-6.1,11.4-9.1c2.3-1.5,3.8-3,6.1-5.3
				c2.3-1.5,3.8-3,5.3-4.6c3-2.3,5.3-4.6,5.3-4.6l-3.8-3.8C-304.7,1137.8-307,1140.1-310,1142.4L-310,1142.4z"/>
			<path class="st12" d="M-263.7,1100.6c-3,3-6.8,6.1-10.6,9.9c-3.8,3.8-7.6,6.8-10.6,9.9c-3,2.3-5.3,4.6-5.3,4.6l3.8,3.8
				c0,0,2.3-1.5,5.3-4.6c3-3,6.8-6.1,10.6-9.9c3.8-3.8,7.6-7.6,10.6-9.9c3-3,4.6-4.6,4.6-4.6l-3.8-3.8
				C-259.2,1096.1-260.7,1098.4-263.7,1100.6L-263.7,1100.6z"/>
			<path class="st12" d="M-220.5,1056.6c-1.5,1.5-3,3-4.6,5.3c-1.5,1.5-3,3.8-5.3,5.3c-3.8,3.8-7.6,7.6-9.9,10.6
				c-1.5,1.5-2.3,2.3-3,3.8c-0.8,0.8-1.5,1.5-1.5,1.5l3.8,3.8c0,0,0.8-0.8,1.5-1.5c0.8-0.8,2.3-2.3,3-3.8c3-3,6.1-6.8,9.9-10.6
				c1.5-1.5,3.8-3.8,5.3-6.1c1.5-1.5,3-3.8,4.6-5.3c3-3,4.6-4.6,4.6-4.6l-4.6-3C-215.9,1052.1-218.2,1053.6-220.5,1056.6
				L-220.5,1056.6z"/>
			<path class="st12" d="M-181.1,1009.6c-1.5,1.5-2.3,3-3.8,5.3c-1.5,2.3-3,3.8-4.6,6.1c-3,3.8-6.8,8.3-9.1,11.4
				c-1.5,1.5-2.3,3-3,3.8c-0.8,0.8-1.5,1.5-1.5,1.5l4.6,3c0,0,0.8-0.8,1.5-1.5c0.8-0.8,1.5-2.3,3-3.8c2.3-3,6.1-6.8,9.1-11.4
				c1.5-2.3,3-3.8,4.6-6.1c1.5-2.3,3-3.8,3.8-5.3c2.3-3,3.8-5.3,3.8-5.3l-4.6-3C-176.5,1005.1-178,1006.6-181.1,1009.6
				L-181.1,1009.6z"/>
			<path class="st12" d="M-144.6,960.3c-0.8,1.5-2.3,3.8-3.8,5.3c-1.5,2.3-3,3.8-4.6,6.1c-1.5,2.3-3,4.6-4.6,6.1
				c-0.8,0.8-1.5,2.3-2.3,3c0,0.8-0.8,0.8-0.8,1.5c0,0.8-0.8,0.8-0.8,1.5c-2.3,3-3.8,5.3-3.8,5.3l4.6,3c0,0,1.5-2.3,3.8-5.3
				c0-0.8,0.8-0.8,0.8-1.5c0-0.8,0.8-0.8,0.8-1.5c0.8-0.8,1.5-1.5,2.3-3c1.5-2.3,3-3.8,4.6-6.1c1.5-2.3,3-4.6,4.6-6.1
				c1.5-2.3,2.3-3.8,3.8-5.3c2.3-3,3.8-5.3,3.8-5.3l-4.6-3C-141.6,955-142.4,957.3-144.6,960.3L-144.6,960.3z"/>
			<path class="st12" d="M-113.5,908.7c-0.8,1.5-2.3,3.8-3,6.1c-1.5,2.3-2.3,4.6-3.8,6.8c-2.3,4.6-5.3,9.1-6.8,12.1
				c-2.3,3-3,5.3-3,5.3l4.6,2.3c0,0,1.5-2.3,3.8-5.3c2.3-3,4.6-7.6,7.6-12.1c1.5-2.3,2.3-4.6,3.8-6.8c1.5-2.3,2.3-3.8,3-6.1
				c1.5-3.8,3-6.1,3-6.1l-5.3-2.3C-110.5,902.7-111.3,904.9-113.5,908.7L-113.5,908.7z"/>
			<path class="st12" d="M-87,854.1c-0.8,1.5-1.5,3.8-2.3,6.1c-0.8,2.3-2.3,4.6-3,6.8c-2.3,4.6-4.6,9.1-6.1,12.9
				c-0.8,1.5-1.5,3-2.3,4.6c-0.8,0.8-0.8,1.5-0.8,1.5l5.3,2.3c0,0,0-0.8,0.8-1.5c0.8-0.8,1.5-2.3,2.3-4.6c1.5-3.8,3.8-8.3,6.1-12.9
				c0.8-2.3,2.3-4.6,3-6.8s1.5-4.6,2.3-6.1c1.5-3.8,2.3-6.1,2.3-6.1l-5.3-1.5C-84,848-85.5,851.1-87,854.1L-87,854.1z"/>
			<path class="st12" d="M-64.2,793.4c0,0.8,0,1.5-0.8,2.3c0,0.8-0.8,1.5-0.8,2.3c-1.5,3.8-3,8.3-4.6,13.7c-0.8,2.3-1.5,4.6-2.3,6.8
				c-0.8,2.3-1.5,4.6-2.3,6.1c-1.5,3.8-2.3,6.1-2.3,6.1l5.3,1.5c0,0,0.8-2.3,2.3-6.1c0.8-1.5,1.5-3.8,2.3-6.1s1.5-4.6,2.3-6.8
				c1.5-4.6,3-9.9,4.6-13.7c0-0.8,0.8-1.5,0.8-2.3c0-0.8,0.8-1.5,0.8-2.3c0-0.8,0.8-1.5,0.8-1.5l-5.3-1.5
				C-64.2,791.9-64.2,792.7-64.2,793.4L-64.2,793.4z"/>
			<path class="st12" d="M-50.6,740.3c0,1.5-0.8,3.8-1.5,6.1c-0.8,2.3-0.8,4.6-1.5,7.6c-1.5,5.3-2.3,9.9-3,13.7
				c-0.8,3.8-1.5,6.1-1.5,6.1l5.3,1.5c0,0,0.8-2.3,1.5-6.1c0.8-3.8,2.3-8.3,3-13.7c0.8-2.3,1.5-5.3,1.5-7.6c0.8-2.3,0.8-4.6,1.5-6.1
				c0.8-3.8,1.5-6.1,1.5-6.1l-5.3-0.8C-49.8,734.3-49.8,736.5-50.6,740.3L-50.6,740.3z"/>
			<path class="st12" d="M-42.2,676.6c0,0.8,0,3,0,4.6c-0.8,3.8-0.8,9.1-1.5,13.7c0,1.5,0,2.3-0.8,3.8c0,1.5,0,2.3-0.8,3.8
				c0,2.3-0.8,4.6-0.8,6.1s-0.8,3.8-0.8,4.6c0,0.8,0,1.5,0,1.5l5.3,0.8c0,0,0-0.8,0-1.5c0-0.8,0-3,0.8-4.6c0-2.3,0.8-3.8,0.8-6.8
				c0-1.5,0-2.3,0.8-3.8c0-1.5,0-2.3,0.8-3.8c0.8-5.3,0.8-9.9,1.5-13.7c0-2.3,0-3.8,0-4.6c0-0.8,0-1.5,0-1.5h-5.3
				C-41.5,675.1-41.5,675.8-42.2,676.6L-42.2,676.6z"/>
			<path class="st12" d="M-40.7,615.9c0,0,0,2.3,0,6.1c0,1.5,0,3.8,0,6.8c0,1.5,0,2.3,0,3.8s0,2.3,0,3.8c0,2.3,0,5.3,0,7.6
				c0,2.3,0,4.6,0,6.8c0,3.8,0,6.1,0,6.1h5.3c0,0,0-2.3,0-6.1c0-2.3,0-3.8,0-6.8c0-2.3,0-5.3,0-7.6c0-1.5,0-2.3,0-3.8s0-2.3,0-3.8
				c0-2.3,0-4.6,0-6.8c0-3.8,0-6.1,0-6.1H-40.7L-40.7,615.9z"/>
			<path class="st12" d="M-2782.2,956.5c0.8,2.3,1.5,4.6,2.3,6.8c0.8,2.3,1.5,4.6,1.5,6.1c0.8,3.8,1.5,6.1,1.5,6.1l5.3-1.5
				c0,0-0.8-2.3-1.5-6.1c-0.8-1.5-0.8-3.8-1.5-6.1c-0.8-2.3-1.5-4.6-2.3-6.8c0-1.5-0.8-2.3-0.8-3.8s-0.8-2.3-0.8-3.8
				c-0.8-2.3-0.8-4.6-1.5-6.1c0-0.8,0-1.5-0.8-2.3c-1.5,3-2.3,6.8-3,9.9c0,0.8,0.8,2.3,0.8,3C-2783,954.2-2783,955.8-2782.2,956.5
				L-2782.2,956.5z"/>
			<path class="st12" d="M-2763.3,1014.9c0,0.8,0.8,1.5,0.8,1.5c0.8,1.5,0.8,2.3,1.5,3c0.8,2.3,1.5,4.6,2.3,6.1
				c0.8,1.5,1.5,3,1.5,4.6c0.8,0.8,0.8,1.5,0.8,1.5l5.3-2.3c0,0,0-0.8-0.8-1.5c-0.8-0.8-0.8-2.3-1.5-4.6c-0.8-1.5-1.5-3.8-2.3-6.1
				c-0.8-0.8-0.8-2.3-1.5-3c0-0.8-0.8-1.5-0.8-1.5c0-0.8-0.8-1.5-0.8-1.5c-1.5-4.6-3.8-9.1-4.6-12.9c-0.8-1.5-0.8-3-1.5-4.6
				c0-0.8-0.8-1.5-0.8-1.5l-5.3,1.5c0,0,0,0.8,0.8,1.5c0,0.8,0.8,2.3,1.5,4.6c1.5,3.8,3,8.3,4.6,12.9
				C-2764,1014.2-2763.3,1014.2-2763.3,1014.9L-2763.3,1014.9z"/>
			<path class="st12" d="M-2729.9,1085.5l5.3-2.3c0,0-1.5-2.3-3-5.3c-2.3-3-4.6-7.6-6.8-12.1c-1.5-2.3-2.3-4.6-3.8-6.8
				c-0.8-2.3-2.3-3.8-3-6.1c-1.5-3.8-3-5.3-3-5.3l-5.3,2.3c0,0,0.8,2.3,3,6.1c0.8,1.5,1.5,3.8,3,6.1c0.8,2.3,2.3,4.6,3.8,6.8
				c2.3,4.6,4.6,9.1,6.8,12.1C-2731.4,1083.2-2729.9,1085.5-2729.9,1085.5z"/>
			<path class="st12" d="M-2698,1136.3l4.6-3c0,0-1.5-2.3-3.8-5.3c-0.8-1.5-2.3-3-3.8-5.3s-3-3.8-3.8-6.1c-3-4.6-5.3-8.3-7.6-11.4
				c-0.8-1.5-1.5-3-2.3-3.8c-0.8-0.8-0.8-1.5-0.8-1.5l-4.6,3c0,0,0,0.8,0.8,1.5c0.8,0.8,1.5,2.3,2.3,3.8c2.3,3,4.6,7.6,7.6,12.1
				c1.5,2.3,3,4.6,4.6,6.1c1.5,2.3,2.3,3.8,3.8,5.3C-2699.5,1134-2698,1136.3-2698,1136.3L-2698,1136.3z"/>
			<path class="st12" d="M-2656.3,1180.3c0,0-0.8-0.8-1.5-1.5c-0.8-0.8-1.5-2.3-3-3.8c-2.3-3-5.3-6.8-9.1-10.6
				c-0.8-0.8-1.5-2.3-2.3-3c-0.8-0.8-1.5-2.3-2.3-3c-1.5-1.5-3-3.8-3.8-5.3c-2.3-3-3.8-5.3-3.8-5.3l-4.6,3c0,0,1.5,2.3,3.8,5.3
				c1.5,1.5,2.3,3,3.8,5.3c0.8,0.8,1.5,2.3,2.3,3c0.8,0.8,1.5,2.3,2.3,3c3,3.8,6.8,7.6,9.1,10.6c1.5,1.5,2.3,3,3,3.8
				c0.8,0.8,1.5,1.5,1.5,1.5L-2656.3,1180.3L-2656.3,1180.3z"/>
			<path class="st12" d="M-2619.9,1219.7c-1.5-1.5-3-3-4.6-4.6c-1.5-1.5-3.8-3.8-5.3-5.3c-1.5-1.5-3.8-3.8-5.3-5.3s-3-3-4.6-4.6
				c-2.3-3-4.6-4.6-4.6-4.6l-4.6,3.8c0,0,1.5,2.3,4.6,4.6c1.5,1.5,3,3,4.6,4.6c1.5,1.5,3.8,3.8,5.3,5.3c1.5,1.5,3.8,3.8,5.3,5.3
				c1.5,1.5,3,3,4.6,4.6c3,3,4.6,4.6,4.6,4.6l3.8-3.8C-2614.6,1224.3-2616.9,1222.8-2619.9,1219.7L-2619.9,1219.7z"/>
			<path class="st12" d="M-2574.4,1260.7c-0.8-0.8-1.5-1.5-2.3-2.3c-0.8-0.8-1.5-1.5-3-2.3c-1.5-1.5-3.8-3-6.1-5.3
				c-2.3-1.5-3.8-3-6.1-5.3c-0.8-0.8-0.8-0.8-1.5-1.5c-0.8-0.8-0.8-0.8-1.5-1.5c-0.8-0.8-1.5-1.5-2.3-2.3c-3-2.3-4.6-4.6-4.6-4.6
				l-3.8,3.8c0,0,2.3,1.5,4.6,4.6c0.8,0.8,1.5,1.5,2.3,2.3c0.8,0,0.8,0.8,1.5,1.5c0.8,0.8,0.8,0.8,1.5,1.5c1.5,1.5,3.8,3,6.1,5.3
				c2.3,1.5,3.8,3,6.1,5.3c0.8,0.8,1.5,1.5,3,2.3c0.8,0.8,1.5,1.5,2.3,2.3c3,2.3,5.3,3.8,5.3,3.8l3.8-3.8
				C-2569.8,1264.5-2571.3,1263-2574.4,1260.7L-2574.4,1260.7z"/>
			<path class="st12" d="M-2531.9,1293.3c-2.3-1.5-3.8-3-6.1-4.6c-2.3-1.5-4.6-3-6.1-4.6c-2.3-1.5-3.8-3-5.3-3.8
				c-3-2.3-5.3-3.8-5.3-3.8l-3.8,3.8c0,0,2.3,1.5,5.3,3.8c1.5,1.5,3,2.3,5.3,3.8c2.3,1.5,3.8,3,6.1,4.6c2.3,1.5,4.6,3,6.1,4.6
				c2.3,1.5,3.8,3,5.3,3.8c3,2.3,5.3,3.8,5.3,3.8l3-4.6c0,0-2.3-1.5-5.3-3.8C-2528.1,1296.4-2529.6,1294.8-2531.9,1293.3
				L-2531.9,1293.3z"/>
			<path class="st12" d="M-2475,1330.5c-3-2.3-7.6-4.6-12.1-7.6c-0.8-0.8-2.3-1.5-3-2.3c-0.8,0-0.8-0.8-1.5-0.8
				c-0.8,0-0.8-0.8-1.5-0.8c-2.3-1.5-3.8-2.3-5.3-3.8c-3-2.3-5.3-3.8-5.3-3.8l-3,4.6c0,0,2.3,1.5,5.3,3.8c1.5,0.8,3.8,2.3,5.3,3.8
				c0.8,0,0.8,0.8,1.5,0.8c0.8,0,0.8,0.8,1.5,0.8c0.8,0.8,2.3,1.5,3,2.3c4.6,3,9.1,5.3,12.1,7.6c1.5,0.8,3,1.5,3.8,2.3
				c0.8,0.8,1.5,0.8,1.5,0.8l3-4.6c0,0-0.8,0-1.5-0.8C-2471.2,1332-2472.7,1331.3-2475,1330.5L-2475,1330.5z"/>
			<path class="st12" d="M-2452.2,1343.4l-3,4.6c0,0,9.1,5.3,19,9.9c9.1,4.6,19,9.9,19,9.9l3-4.6c0,0-9.1-4.6-19-9.9
				C-2443.1,1348.7-2452.2,1343.4-2452.2,1343.4L-2452.2,1343.4z"/>
			<path class="st12" d="M-2377.9,1380.6c-4.6-2.3-9.9-4.6-12.9-6.1c-3.8-1.5-6.1-3-6.1-3l-2.3,4.6c0,0,2.3,1.5,6.1,3
				c3.8,1.5,8.3,3.8,13.7,6.1c4.6,2.3,9.9,4.6,13.7,6.1s6.1,2.3,6.1,2.3l2.3-4.6c0,0-2.3-0.8-6.1-2.3
				C-2368,1384.4-2373.4,1382.1-2377.9,1380.6L-2377.9,1380.6z"/>
			<path class="st12" d="M-2333.9,1398.8c-3.8-1.5-6.1-2.3-6.1-2.3l-2.3,4.6c0,0,2.3,0.8,6.1,2.3c3.8,1.5,8.3,3.8,13.7,5.3
				c9.9,3.8,19.7,7.6,19.7,7.6l2.3-4.6c0,0-9.9-3.8-19.7-7.6C-2325.6,1401.8-2330.1,1400.3-2333.9,1398.8L-2333.9,1398.8z"/>
			<path class="st12" d="M-2261.8,1424.6c-2.3-0.8-5.3-1.5-7.6-2.3c-1.5,0-2.3-0.8-3.8-0.8c-0.8,0-2.3-0.8-3-0.8
				c-3.8-1.5-6.1-2.3-6.1-2.3l-1.5,3.8c0,0,2.3,0.8,6.1,2.3c0.8,0,2.3,0.8,3,0.8c0.8,0,2.3,0.8,3.8,0.8c2.3,0.8,5.3,1.5,7.6,2.3
				c5.3,1.5,9.9,3,13.7,4.6c3.8,0.8,6.1,1.5,6.1,1.5l1.5-5.3c0,0-2.3-0.8-6.1-1.5C-2252,1427.6-2256.5,1426.1-2261.8,1424.6
				L-2261.8,1424.6z"/>
			<path class="st12" d="M-2194.3,1443.5c-2.3-0.8-5.3-1.5-7.6-2.3c-5.3-1.5-10.6-3-14.4-3.8c-2.3-0.8-3.8-0.8-4.6-1.5
				c-0.8,0-1.5-0.8-1.5-0.8l-1.5,5.3c0,0,0.8,0,1.5,0.8c0.8,0,3,0.8,4.6,1.5c3.8,0.8,9.1,2.3,14.4,3.8c2.3,0.8,5.3,1.5,7.6,2.3
				c2.3,0.8,4.6,1.5,6.8,1.5c3.8,0.8,6.8,1.5,6.8,1.5l1.5-5.3c0,0-2.3-0.8-6.8-1.5C-2189.8,1445-2192.1,1444.3-2194.3,1443.5
				L-2194.3,1443.5z"/>
			<path class="st12" d="M-2133.6,1457.9c-2.3-0.8-5.3-0.8-7.6-1.5c-10.6-2.3-20.5-4.6-20.5-4.6l-1.5,5.3c0,0,10.6,2.3,21.2,4.6
				c2.3,0.8,5.3,1.5,7.6,1.5c2.3,0.8,4.6,0.8,6.8,1.5c3.8,0.8,6.8,1.5,6.8,1.5l1.5-5.3c0,0-2.3-0.8-6.8-1.5
				C-2128.3,1458.7-2130.6,1458.7-2133.6,1457.9L-2133.6,1457.9z"/>
			<path class="st12" d="M-2100.3,1464.8l-1.5,5.3c0,0,10.6,2.3,21.2,3.8c10.6,1.5,21.2,3.8,21.2,3.8l0.8-5.3c0,0-10.6-1.5-21.2-3.8
				C-2089.6,1466.3-2100.3,1464.8-2100.3,1464.8z"/>
			<path class="st12" d="M-2038.8,1474.6l-0.8,5.3c0,0,10.6,1.5,21.2,3c10.6,1.5,21.2,3,21.2,3l0.8-5.3c0,0-10.6-1.5-21.2-3
				C-2028.2,1476.9-2038.8,1474.6-2038.8,1474.6z"/>
			<path class="st12" d="M-1947,1486c-2.3,0-5.3-0.8-7.6-0.8c-10.6-1.5-21.2-2.3-21.2-2.3l-0.8,5.3c0,0,10.6,1.5,21.2,2.3
				c3,0,5.3,0.8,7.6,0.8s4.6,0.8,6.8,0.8c3.8,0,6.8,0.8,6.8,0.8l0.8-5.3l-6.8-0.8C-1941.7,1486.8-1944.8,1486.8-1947,1486
				L-1947,1486z"/>
			<path class="st12" d="M-1884.1,1491.3c-2.3,0-5.3,0-7.6-0.8c-10.6-0.8-21.2-1.5-21.2-1.5l-0.8,5.3c0,0,10.6,0.8,21.2,1.5
				c3,0,5.3,0.8,7.6,0.8s4.6,0,6.8,0.8c3.8,0,6.8,0.8,6.8,0.8l0.8-5.3c0,0-3,0-6.8-0.8C-1879.5,1491.3-1881.8,1491.3-1884.1,1491.3
				L-1884.1,1491.3z"/>
			<path class="st12" d="M-1828.7,1494.3c-5.3,0-10.6-0.8-15.2-0.8c-2.3,0-3.8,0-4.6,0c-1.5,0-1.5,0-1.5,0l-0.8,5.3c0,0,0.8,0,1.5,0
				c1.5,0,3,0,4.6,0c3.8,0,9.1,0.8,15.2,0.8c5.3,0,10.6,0.8,15.2,0.8c3.8,0,6.8,0,6.8,0v-5.3c0,0-3,0-6.8,0
				C-1818.1,1494.3-1823.4,1494.3-1828.7,1494.3z"/>
			<path class="st12" d="M-1780.9,1495.9c-3.8,0-6.8,0-6.8,0v5.3c0,0,3,0,6.8,0c3.8,0,9.1,0,15.2,0c10.6,0,21.2,0,21.2,0v-5.3
				c0,0-10.6,0-21.2,0C-1771,1495.9-1776.3,1495.9-1780.9,1495.9L-1780.9,1495.9z"/>
			<path class="st12" d="M-1724,1495.9v5.3c0,0,10.6,0,21.2,0c10.6,0,21.2-0.8,21.2-0.8v-5.3c0,0-10.6,0-21.2,0.8
				C-1713.4,1495.9-1724,1495.9-1724,1495.9z"/>
			<path class="st12" d="M-1624.6,1493.6c-3.8,0-9.1,0-15.2,0.8c-10.6,0.8-21.2,0.8-21.2,0.8v5.3c0,0,10.6-0.8,21.2-0.8
				c5.3,0,10.6-0.8,15.2-0.8c2.3,0,3.8,0,4.6,0s1.5,0,1.5,0v-5.3c0,0-0.8,0-1.5,0C-1620.8,1493.6-1622.4,1493.6-1624.6,1493.6
				L-1624.6,1493.6z"/>
			<path class="st12" d="M-1591.3,1492.1c-3.8,0-6.8,0-6.8,0v5.3c0,0,3,0,6.8,0s9.1-0.8,15.2-0.8c10.6-0.8,21.2-1.5,21.2-1.5v-5.3
				c0,0-10.6,0.8-21.2,1.5C-1581.4,1491.3-1586.7,1492.1-1591.3,1492.1L-1591.3,1492.1z"/>
			<path class="st12" d="M-1513.1,1486.8c-10.6,0.8-21.2,1.5-21.2,1.5v5.3c0,0,10.6-0.8,21.2-1.5c5.3-0.8,10.6-0.8,15.2-1.5
				c3.8,0,6.8-0.8,6.8-0.8l-0.8-5.3c0,0-3,0-6.8,0.8C-1502.5,1486-1507.8,1486-1513.1,1486.8L-1513.1,1486.8z"/>
			<path class="st12" d="M-1464.6,1482.2c-3.8,0-6.8,0.8-6.8,0.8l0.8,5.3c0,0,3,0,6.8-0.8c3.8,0,9.1-0.8,15.2-1.5
				c10.6-0.8,21.2-2.3,21.2-2.3l-0.8-5.3c0,0-10.6,0.8-21.2,2.3C-1455.5,1481.5-1460.8,1482.2-1464.6,1482.2L-1464.6,1482.2z"/>
			<path class="st12" d="M-1372,1472.3c-3.8,0.8-9.1,0.8-14.4,1.5c-10.6,1.5-21.2,2.3-21.2,2.3l0.8,5.3c0,0,10.6-1.5,21.2-2.3
				c5.3-0.8,10.6-1.5,14.4-1.5c2.3,0,3.8-0.8,4.6-0.8c1.5,0,1.5,0,1.5,0l-0.8-5.3c0,0-0.8,0-1.5,0
				C-1369,1471.6-1370.5,1472.3-1372,1472.3L-1372,1472.3z"/>
			<path class="st12" d="M-1309.8,1464c-3.8,0.8-9.1,1.5-14.4,2.3c-10.6,1.5-21.2,3-21.2,3l0.8,5.3c0,0,10.6-1.5,21.2-3
				c5.3-0.8,10.6-1.5,14.4-2.3c3.8-0.8,6.8-0.8,6.8-0.8l-0.8-5.3C-1303,1463.2-1305.3,1463.2-1309.8,1464L-1309.8,1464z"/>
			<path class="st12" d="M-1262,1457.2c-5.3,0.8-10.6,1.5-14.4,2.3c-2.3,0-3.8,0.8-4.6,0.8c-1.5,0-1.5,0-1.5,0l0.8,5.3
				c0,0,0.8,0,1.5,0c1.5,0,3-0.8,4.6-0.8c3.8-0.8,9.1-1.5,14.4-2.3c10.6-1.5,21.2-3,21.2-3l-0.8-5.3
				C-1240,1453.4-1250.7,1455.7-1262,1457.2z"/>
			<path class="st12" d="M-1184.7,1444.3c-2.3,0-4.6,0.8-6.8,1.5c-2.3,0.8-5.3,0.8-7.6,1.5c-10.6,1.5-21.2,3.8-21.2,3.8l0.8,5.3
				c0,0,10.6-1.5,21.2-3.8c3-0.8,5.3-0.8,7.6-1.5c2.3-0.8,4.6-0.8,6.8-1.5c3.8-0.8,6.8-1.5,6.8-1.5l-0.8-5.3
				C-1177.8,1442.8-1180.9,1443.5-1184.7,1444.3L-1184.7,1444.3z"/>
			<path class="st12" d="M-1150.5,1443.5c3.8-0.8,9.1-1.5,14.4-3c10.6-2.3,21.2-4.6,21.2-4.6l-0.8-5.3c0,0-10.6,2.3-21.2,4.6
				c-5.3,0.8-10.6,2.3-14.4,3c-3.8,0.8-6.8,1.5-6.8,1.5l0.8,5.3C-1157.3,1444.3-1154.3,1444.3-1150.5,1443.5L-1150.5,1443.5z"/>
			<path class="st12" d="M-1073.9,1427.6c5.3-0.8,10.6-2.3,14.4-3c3.8-0.8,6.8-1.5,6.8-1.5l-1.5-5.3c0,0-2.3,0.8-6.8,1.5
				c-3.8,0.8-9.1,2.3-14.4,3c-10.6,2.3-21.2,4.6-21.2,4.6l0.8,5.3C-1095.1,1432.1-1084.5,1429.9-1073.9,1427.6L-1073.9,1427.6z"/>
			<path class="st12" d="M-1026.9,1417c3.8-0.8,9.1-2.3,14.4-3.8c5.3-1.5,10.6-2.3,14.4-3.8c2.3-0.8,3.8-0.8,4.6-1.5
				c1.5,0,1.5-0.8,1.5-0.8l-1.5-5.3c0,0-0.8,0-1.5,0.8c-1.5,0-3,0.8-4.6,1.5c-3.8,0.8-9.1,2.3-14.4,3.8c-5.3,1.5-10.6,2.3-14.4,3.8
				c-3.8,0.8-6.8,1.5-6.8,1.5l1.5,5.3C-1032.9,1418.5-1030.7,1417.7-1026.9,1417L-1026.9,1417z"/>
			<path class="st12" d="M-958.6,1399.5c1.5,0,2.3-0.8,3.8-0.8c1.5,0,2.3-0.8,3.8-0.8c10.6-3,20.5-6.1,20.5-6.1l-1.5-5.3
				c0,0-10.6,3-20.5,6.1c-1.5,0-2.3,0.8-3.8,0.8c-1.5,0-2.3,0.8-3.8,0.8c-2.3,0.8-4.6,1.5-6.8,1.5c-3.8,0.8-6.8,1.5-6.8,1.5l1.5,5.3
				c0,0,2.3-0.8,6.8-1.5C-963.2,1401-960.9,1400.3-958.6,1399.5L-958.6,1399.5z"/>
			<path class="st12" d="M-882,1378.3c2.3-0.8,4.6-1.5,6.8-2.3c3.8-1.5,6.8-2.3,6.8-2.3l-1.5-5.3c0,0-2.3,0.8-6.1,2.3
				c-2.3,0.8-4.6,1.5-6.8,2.3c-2.3,0.8-5.3,1.5-7.6,2.3c-10.6,3-20.5,6.1-20.5,6.1l1.5,5.3c0,0,10.6-3,20.5-6.1
				C-887.3,1379.8-884.3,1379-882,1378.3L-882,1378.3z"/>
			<path class="st12" d="M-843.3,1366.1c3.8-1.5,9.1-3,14.4-4.6c5.3-1.5,10.6-3,14.4-4.6c3.8-1.5,6.1-2.3,6.1-2.3l-1.5-5.3
				c0,0-2.3,0.8-6.1,2.3c-3.8,1.5-9.1,3-14.4,4.6c-5.3,1.5-9.9,3-14.4,4.6c-2.3,0.8-3.8,1.5-4.6,1.5c-0.8,0-1.5,0.8-1.5,0.8l1.5,5.3
				c0,0,0.8,0,1.5-0.8C-847.1,1367.7-845.6,1366.9-843.3,1366.1L-843.3,1366.1z"/>
			<path class="st12" d="M-769.7,1341.1c9.9-3.8,20.5-7.6,20.5-7.6l-2.3-4.6c0,0-9.9,3.8-20.5,7.6c-5.3,1.5-9.9,3.8-13.7,5.3
				c-3.8,1.5-6.1,2.3-6.1,2.3l1.5,4.6c0,0,2.3-0.8,6.1-2.3C-779.6,1344.9-774.3,1342.6-769.7,1341.1L-769.7,1341.1z"/>
			<path class="st12" d="M-717.4,1321.4c2.3-0.8,4.6-2.3,7.6-3c9.9-3.8,19.7-8.3,19.7-8.3l-2.3-4.6c0,0-9.9,3.8-19.7,8.3
				c-2.3,0.8-5.3,2.3-7.6,3c-2.3,0.8-4.6,1.5-6.1,2.3c-3.8,1.5-6.1,2.3-6.1,2.3l2.3,4.6c0,0,2.3-0.8,6.1-2.3
				C-721.9,1323.7-719.6,1322.9-717.4,1321.4L-717.4,1321.4z"/>
			<path class="st12" d="M-659,1297.9c2.3-0.8,4.6-2.3,7.6-3c9.9-4.6,19.7-9.1,19.7-9.1l-2.3-4.6c0,0-9.9,4.6-19.7,8.3
				c-2.3,0.8-4.6,2.3-7.6,3c-2.3,0.8-4.6,1.5-6.1,3c-3.8,1.5-6.1,2.3-6.1,2.3l2.3,4.6c0,0,2.3-0.8,6.1-2.3
				C-663.5,1299.4-661.2,1298.6-659,1297.9z"/>
			<path class="st12" d="M-602.1,1271.3c2.3-0.8,4.6-2.3,6.8-3.8c9.9-4.6,19-9.1,19-9.1l-2.3-4.6c0,0-9.9,4.6-19,9.1
				c-2.3,1.5-4.6,2.3-6.8,3.8c-2.3,0.8-4.6,2.3-6.1,3c-3.8,1.5-6.1,3-6.1,3l2.3,4.6c0,0,2.3-1.5,6.1-3
				C-605.9,1273.6-604.3,1272.8-602.1,1271.3L-602.1,1271.3z"/>
			<path class="st12" d="M-545.2,1243.3c2.3-1.5,4.6-2.3,6.8-3.8c4.6-2.3,9.1-5.3,12.9-6.8c1.5-0.8,3-1.5,4.6-2.3
				c0.8-0.8,1.5-0.8,1.5-0.8l-3-4.6c0,0-0.8,0-1.5,0.8c-0.8,0.8-2.3,1.5-4.6,2.3c-3.8,2.3-8.3,4.6-12.9,6.8
				c-2.3,1.5-4.6,2.3-6.8,3.8c-2.3,1.5-4.6,2.3-6.1,3c-3.8,1.5-6.1,3-6.1,3l2.3,4.6c0,0,2.3-1.5,6.1-3
				C-549.7,1245.5-547.4,1244.8-545.2,1243.3L-545.2,1243.3z"/>
			<path class="st12" d="M-483.7,1208.4c4.6-3,9.1-5.3,12.9-7.6c3-2.3,5.3-3.8,5.3-3.8l-3-4.6c0,0-2.3,1.5-5.3,3.8
				c-3,2.3-8.3,4.6-12.9,7.6c-4.6,3-9.1,5.3-12.9,7.6c-3.8,2.3-6.1,3-6.1,3l3,4.6c0,0,2.3-1.5,6.1-3
				C-492.8,1214.4-488.3,1211.4-483.7,1208.4L-483.7,1208.4z"/>
			<path class="st12" d="M-418.5,1167.4c3-2.3,5.3-3.8,5.3-3.8l-3-4.6c0,0-2.3,1.5-5.3,3.8s-7.6,5.3-12.1,8.3l-18.2,11.4l3,4.6
				c0,0,9.1-6.1,18.2-11.4C-426.1,1172.7-421.5,1169.7-418.5,1167.4L-418.5,1167.4z"/>
			<path class="st12" d="M-385.9,1143.9c0.8-0.8,2.3-1.5,3-2.3c0.8-0.8,2.3-1.5,3-2.3c8.3-6.1,16.7-12.9,16.7-12.9l-3.8-3.8
				c0,0-8.3,6.1-16.7,12.9c-0.8,0.8-2.3,1.5-3,2.3c-0.8,0.8-2.3,1.5-3,2.3c-2.3,1.5-3.8,3-5.3,3.8c-3,2.3-5.3,3.8-5.3,3.8l3,3.8
				c0,0,2.3-1.5,5.3-3.8C-389.7,1146.9-387.4,1145.4-385.9,1143.9L-385.9,1143.9z"/>
			<path class="st12" d="M-330.5,1101.4c2.3-1.5,3.8-3,6.1-5.3c2.3-1.5,3.8-3,5.3-4.6c3-2.3,5.3-4.6,5.3-4.6l-3.8-3.8
				c0,0-2.3,1.5-5.3,4.6c-1.5,1.5-3,3-5.3,4.6c-2.3,1.5-3.8,3-6.1,5.3c-3.8,3-8.3,6.8-11.4,9.1c-1.5,1.5-3,2.3-3.8,3
				c-0.8,0.8-1.5,0.8-1.5,0.8l3.8,3.8c0,0,0.8-0.8,1.5-0.8c0.8-0.8,2.3-1.5,3.8-3C-338.8,1108.2-334.3,1104.4-330.5,1101.4
				L-330.5,1101.4z"/>
			<path class="st12" d="M-283.5,1060.4c3.8-3.8,7.6-7.6,10.6-9.9c1.5-1.5,2.3-2.3,3.8-3c0.8-0.8,1.5-1.5,1.5-1.5l-3.8-3.8
				c0,0-0.8,0.8-1.5,1.5c-0.8,0.8-2.3,2.3-3.8,3c-3,3-6.8,6.1-10.6,9.9c-3.8,3.8-7.6,6.8-10.6,9.9c-3,2.3-4.6,4.6-4.6,4.6l3.8,3.8
				c0,0,2.3-1.5,4.6-4.6S-287.3,1063.5-283.5,1060.4L-283.5,1060.4z"/>
			<path class="st12" d="M-237.2,1013.4c0.8-0.8,1.5-2.3,2.3-3c1.5-1.5,3-3.8,4.6-5.3c2.3-3,4.6-4.6,4.6-4.6l-4.6-3
				c0,0-1.5,2.3-4.6,4.6c-1.5,1.5-3,3-4.6,5.3c-0.8,0.8-1.5,1.5-2.3,3c-0.8,0.8-1.5,2.3-2.3,3c-7.6,7.6-14.4,15.2-14.4,15.2l3.8,3.8
				c0,0,7.6-7.6,14.4-15.2C-239.5,1015.7-237.9,1014.2-237.2,1013.4L-237.2,1013.4z"/>
			<path class="st12" d="M-209.1,980.8c2.3-3,6.1-6.8,9.1-11.4c3-3.8,6.8-8.3,9.1-11.4s3.8-5.3,3.8-5.3l-4.6-3c0,0-1.5,2.3-3.8,5.3
				c-2.3,3-5.3,7.6-9.1,11.4c-3,3.8-6.8,8.3-9.1,11.4c-1.5,1.5-2.3,3-3,3.8c-0.8,0.8-1.5,1.5-1.5,1.5l4.6,3c0,0,0.8-0.8,1.5-1.5
				C-211.4,983.8-209.9,982.3-209.1,980.8L-209.1,980.8z"/>
			<path class="st12" d="M-163.6,920.1c1.5-2.3,3-4.6,4.6-6.1c1.5-2.3,2.3-3.8,3.8-5.3c2.3-3,3.8-5.3,3.8-5.3l-4.6-2.3
				c0,0-1.5,2.3-3.8,5.3c-0.8,1.5-2.3,3.8-3.8,5.3c-1.5,2.3-3,3.8-4.6,6.1c-3,4.6-6.1,8.3-8.3,11.4c-2.3,3-3.8,5.3-3.8,5.3l4.6,3
				c0,0,1.5-2.3,3.8-5.3C-168.9,929.2-166.6,924.7-163.6,920.1L-163.6,920.1z"/>
			<path class="st12" d="M-131,868.5c2.3-4.6,5.3-9.1,6.8-12.1c1.5-3.8,3-6.1,3-6.1l-5.3-2.3c0,0-1.5,2.3-3,5.3
				c-1.5,3-4.6,7.6-6.8,12.1c-2.3,4.6-5.3,9.1-6.8,12.1c-2.3,3-3,5.3-3,5.3l4.6,2.3c0,0,1.5-2.3,3-5.3
				C-136.3,877.6-134,873.1-131,868.5L-131,868.5z"/>
			<path class="st12" d="M-102.9,813.1c0-0.8,0.8-1.5,0.8-1.5c0.8-1.5,0.8-2.3,1.5-3.8c0.8-2.3,1.5-4.6,2.3-6.1
				c1.5-3.8,2.3-6.1,2.3-6.1l-5.3-1.5c0,0-0.8,2.3-2.3,6.1c-0.8,1.5-1.5,3.8-2.3,6.1c-0.8,0.8-0.8,2.3-1.5,3c0,0.8-0.8,1.5-0.8,1.5
				c0,0.8-0.8,1.5-0.8,1.5c-2.3,4.6-4.6,9.1-6.1,12.9c-0.8,0.8-0.8,1.5-0.8,2.3c0,0.8-0.8,1.5-0.8,1.5c-0.8,0.8-0.8,1.5-0.8,1.5
				l5.3,2.3c0,0,0-0.8,0.8-1.5c0-0.8,0.8-0.8,0.8-1.5c0-0.8,0.8-1.5,0.8-2.3c1.5-3.8,3.8-8.3,6.1-12.9
				C-103.7,813.9-103.7,813.1-102.9,813.1L-102.9,813.1z"/>
			<path class="st12" d="M-83.2,762.3c0.8-1.5,0.8-2.3,1.5-3.8c1.5-4.6,3-9.9,4.6-13.7c0.8-3.8,1.5-6.1,1.5-6.1l-5.3-1.5
				c0,0-0.8,2.3-1.5,6.1c-1.5,3.8-3,8.3-4.6,13.7c-0.8,1.5-0.8,2.3-1.5,3.8c-0.8,1.5-0.8,2.3-1.5,3.8c-0.8,2.3-1.5,4.6-2.3,6.1
				c-1.5,3.8-2.3,6.1-2.3,6.1l5.3,1.5c0,0,0.8-2.3,2.3-6.1c0.8-1.5,1.5-3.8,2.3-6.1C-84,764.6-84,763.1-83.2,762.3L-83.2,762.3z"/>
			<path class="st12" d="M-69.5,714.5c0.8-3.8,2.3-8.3,3-13.7c0.8-2.3,0.8-5.3,1.5-7.6c0.8-2.3,0.8-4.6,1.5-6.1
				c0.8-3.8,1.5-6.1,1.5-6.1l-5.3-0.8c0,0-0.8,2.3-1.5,6.1c0,1.5-0.8,3.8-1.5,6.1c-0.8,2.3-0.8,4.6-1.5,7.6c-0.8,5.3-2.3,9.9-3,13.7
				c-0.8,3.8-1.5,6.1-1.5,6.1l5.3,1.5C-71.1,720.6-70.3,718.3-69.5,714.5L-69.5,714.5z"/>
			<path class="st12" d="M-58.9,659.9c0-0.8,0-3,0.8-4.6c0-1.5,0.8-3.8,0.8-6.8c0-1.5,0-2.3,0.8-3.8c0-0.8,0-1.5,0-1.5
				c0-0.8,0-1.5,0-1.5c0.8-5.3,0.8-9.9,1.5-13.7c0-2.3,0-3.8,0-4.6c0-0.8,0-1.5,0-1.5h-5.3c0,0,0,0.8,0,1.5c0,0.8,0,3,0,4.6
				c0,3.8-0.8,9.1-1.5,13.7c0,0.8,0,1.5,0,1.5c0,0.8,0,1.5,0,1.5c0,1.5,0,2.3-0.8,3.8c0,2.3-0.8,4.6-0.8,6.1c0,1.5-0.8,3.8-0.8,4.6
				c0,0.8,0,1.5,0,1.5l5.3,0.8C-58.9,662.2-58.9,661.4-58.9,659.9L-58.9,659.9z"/>
			<path class="st12" d="M-58.9,574.9c0,1.5,0,2.3,0,3.8c0,1.5,0,2.3,0,3.8c0,2.3,0,5.3,0,7.6c0,2.3,0,4.6,0,6.1c0,3.8,0,6.1,0,6.1
				h5.3c0,0,0-2.3,0-6.1c0-2.3,0-3.8,0-6.8c0-2.3,0-4.6,0-7.6c0-1.5,0-2.3,0-3.8c0-1.5,0-2.3,0-3.8l0,0c-1.5-3-3.8-6.1-6.1-8.3
				c0,0.8,0,1.5,0,2.3C-58.9,570.4-58.9,572.7-58.9,574.9L-58.9,574.9z"/>
		</g>
		
			<linearGradient id="SVGID_00000163061336883879592910000005783943702284152763_" gradientUnits="userSpaceOnUse" x1="-2899.6643" y1="801.7753" x2="-213.2846" y2="801.7753" gradientTransform="matrix(0.9519 -0.1302 0.1176 0.8595 7.0094 152.0313)">
			<stop  offset="0.1" style="stop-color:#000000"/>
			<stop  offset="0.12" style="stop-color:#020202"/>
			<stop  offset="0.51" style="stop-color:#333333"/>
			<stop  offset="0.85" style="stop-color:#0A0A0A"/>
			<stop  offset="0.93" style="stop-color:#000000"/>
		</linearGradient>
		<path style="fill:url(#SVGID_00000163061336883879592910000005783943702284152763_);" d="M-132.5,644
			c39.4,286.7-270.8,683.5-1191.7,809.4s-1326-173-1365.4-459.7s551.5-232.1,1257-328.5S-172,357.2-132.5,644L-132.5,644z"/>
		<path d="M-1425.1,715.3c-468.8,64.5-865.5,55.4-952.8-15.2l69.8,370.9c12.9,91.8,430.9,110,936.8,41S-467,912.5-479.2,820.7
			l-32.6-376.3C-576.3,536.3-955.6,650.8-1425.1,715.3L-1425.1,715.3z"/>
		<path class="st3" d="M-1427.4,694c-468.8,64.5-867.1,55.4-954.3-15.2l69.8,370.9c12.9,91.8,433.1,110,939.1,41
			c506-69,905.7-199.5,893.6-291.3l-32.6-376.3C-577.8,515-958.6,629.6-1427.4,694L-1427.4,694z"/>
		
			<linearGradient id="SVGID_00000051385097030845976630000010122272189632517768_" gradientUnits="userSpaceOnUse" x1="-2606.511" y1="-354.8305" x2="-505.3318" y2="-354.8305" gradientTransform="matrix(0.9519 -0.1302 0.1176 0.8595 7.0094 152.0313)">
			<stop  offset="0" style="stop-color:#000000"/>
			<stop  offset="7.000000e-02" style="stop-color:#0E0E0E"/>
			<stop  offset="0.25" style="stop-color:#303030"/>
			<stop  offset="0.39" style="stop-color:#454545"/>
			<stop  offset="0.49" style="stop-color:#4D4D4D"/>
			<stop  offset="0.78" style="stop-color:#1E1E1E"/>
			<stop  offset="1" style="stop-color:#000000"/>
		</linearGradient>
		<path style="fill:url(#SVGID_00000051385097030845976630000010122272189632517768_);" d="M-628.6-909.6L-628.6-909.6
			c-13.7-98.6-478.7-166.1-1030.9-90.3s-982.4,265.5-968.7,364.1c0,0.8,0,2.3,0.8,3l316.3,1690.9c12.9,91.8,433.1,110,939.1,41
			c506-69,905.7-199.5,893.6-291.3L-627.9-906.6C-628.6-907.3-628.6-908.1-628.6-909.6L-628.6-909.6z"/>
		
			<linearGradient id="SVGID_00000177452125336016084590000004583100080148349351_" gradientUnits="userSpaceOnUse" x1="-2537.9971" y1="538.9923" x2="-573.6277" y2="538.9923" gradientTransform="matrix(0.9519 -0.1302 0.1176 0.8595 7.0094 152.0313)">
			<stop  offset="0" style="stop-color:#2B2B2B"/>
			<stop  offset="0.5" style="stop-color:#CBCBCB"/>
			<stop  offset="1" style="stop-color:#333333"/>
		</linearGradient>
		<path style="fill:url(#SVGID_00000177452125336016084590000004583100080148349351_);" d="M-1428.2,691
			c-468.8,64.5-867.1,55.4-954.3-15.2l69.8,370.9c12.9,91.8,433.1,110,939.1,41s905.7-199.5,893.6-291.3l-32.6-376.3
			C-577.8,512-959.4,626.5-1428.2,691L-1428.2,691z"/>
		
			<linearGradient id="SVGID_00000142164860024749961360000000172364699430440070_" gradientUnits="userSpaceOnUse" x1="-2538.0381" y1="552.2249" x2="-573.6686" y2="552.2249" gradientTransform="matrix(0.9519 -0.1302 0.1176 0.8595 7.0094 152.0313)">
			<stop  offset="0" style="stop-color:#1A1A1A"/>
			<stop  offset="0.5" style="stop-color:#666666"/>
			<stop  offset="1" style="stop-color:#1A1A1A"/>
		</linearGradient>
		<path style="fill:url(#SVGID_00000142164860024749961360000000172364699430440070_);" d="M-1426.6,702.4
			c-468.8,64.5-867.1,55.4-954.3-15.2l69.8,370.9c12.9,91.8,433.1,110,939.1,41c506-69,905.7-199.5,893.6-291.3L-511,431.6
			C-576.3,523.4-957.1,638.7-1426.6,702.4L-1426.6,702.4z"/>
		
			<linearGradient id="SVGID_00000176036212284077522120000018045247795026187685_" gradientUnits="userSpaceOnUse" x1="-2606.3887" y1="-1320.8467" x2="-505.5336" y2="-1320.8467" gradientTransform="matrix(0.9519 -0.1302 0.1176 0.8595 7.0094 152.0313)">
			<stop  offset="0" style="stop-color:#000000"/>
			<stop  offset="7.000000e-02" style="stop-color:#0E0E0E"/>
			<stop  offset="0.25" style="stop-color:#303030"/>
			<stop  offset="0.39" style="stop-color:#454545"/>
			<stop  offset="0.49" style="stop-color:#4D4D4D"/>
			<stop  offset="0.78" style="stop-color:#1E1E1E"/>
			<stop  offset="1" style="stop-color:#000000"/>
		</linearGradient>
		<path style="fill:url(#SVGID_00000176036212284077522120000018045247795026187685_);" d="M-1599.6-561.4
			c489.3-66.8,885.3-218.5,966.4-360.3c-49.3-91.8-498.4-150.2-1026.4-78.1c-528.7,72.1-945.2,249.6-967.9,350.5
			C-2510.7-534.9-2088.9-494.6-1599.6-561.4L-1599.6-561.4z"/>
		
			<linearGradient id="SVGID_00000080887099802869187000000012910568276510786480_" gradientUnits="userSpaceOnUse" x1="-1924.5883" y1="-1959.0381" x2="-1177.5203" y2="-679.0876" gradientTransform="matrix(0.9519 -0.1302 0.1176 0.8595 7.0094 152.0313)">
			<stop  offset="0" style="stop-color:#000000"/>
			<stop  offset="7.000000e-02" style="stop-color:#0E0E0E"/>
			<stop  offset="0.25" style="stop-color:#303030"/>
			<stop  offset="0.39" style="stop-color:#454545"/>
			<stop  offset="0.49" style="stop-color:#4D4D4D"/>
			<stop  offset="0.65" style="stop-color:#303030"/>
			<stop  offset="0.88" style="stop-color:#0D0D0D"/>
			<stop  offset="1" style="stop-color:#000000"/>
		</linearGradient>
		<path style="fill:url(#SVGID_00000080887099802869187000000012910568276510786480_);" d="M-1599.6-561.4
			c489.3-66.8,885.3-218.5,966.4-360.3c-49.3-91.8-498.4-150.2-1026.4-78.1c-528.7,72.1-945.2,249.6-967.9,350.5
			C-2510.7-534.9-2088.9-494.6-1599.6-561.4L-1599.6-561.4z"/>
		
			<linearGradient id="SVGID_00000012456923215630536450000001190991268020363677_" gradientUnits="userSpaceOnUse" x1="-2561.0798" y1="-1170.8682" x2="-550.853" y2="-1170.8682" gradientTransform="matrix(0.9519 -0.1302 0.1176 0.8595 7.0094 152.0313)">
			<stop  offset="0" style="stop-color:#2B2B2B"/>
			<stop  offset="0.5" style="stop-color:#CBCBCB"/>
			<stop  offset="1" style="stop-color:#333333"/>
		</linearGradient>
		<path style="fill:url(#SVGID_00000012456923215630536450000001190991268020363677_);" d="M-2578.9-619.1
			c73.6,81.9,491.6,132,980.1,65.2s877.7-226.8,927-326.2c-81.9,100.9-460.5,249.6-928.5,313.3
			C-2068.4-502.2-2472.7-544-2578.9-619.1z"/>
	</g>
</g>
</svg>
